<svg xmlns="http://www.w3.org/2000/svg" width="1200" height="320" viewBox="0 0 1200 320" role="img">
<rect width="1200" height="320" rx="24" fill="#0d1117"/>
<text x="56" y="56" fill="#e6edf3" font-size="30" font-family="ui-sans-serif, system-ui, sans-serif" font-weight="700">Commit language mix</text>
<text x="56" y="82" fill="#8b949e" font-size="16" font-family="ui-sans-serif, system-ui, sans-serif">@yashaswidhasarali | Estimated from repository language bytes weighted by commit activity</text>
<circle cx="64" cy="94" r="6" fill="#58a6ff"/>
<text x="80" y="100" fill="#c9d1d9" font-size="18" font-family="ui-sans-serif, system-ui, sans-serif">Python</text>
<rect x="296" y="84" width="520" height="14" rx="7" fill="#21262d"/>
<rect x="296" y="84" width="520.00" height="14" rx="7" fill="#58a6ff"/>
<text x="856" y="100" text-anchor="end" fill="#c9d1d9" font-size="17" font-family="ui-sans-serif, system-ui, sans-serif">94.9%</text>
<circle cx="64" cy="128" r="6" fill="#3fb950"/>
<text x="80" y="134" fill="#c9d1d9" font-size="18" font-family="ui-sans-serif, system-ui, sans-serif">Jupyter Notebook</text>
<rect x="296" y="118" width="520" height="14" rx="7" fill="#21262d"/>
<rect x="296" y="118" width="16.60" height="14" rx="7" fill="#3fb950"/>
<text x="856" y="134" text-anchor="end" fill="#c9d1d9" font-size="17" font-family="ui-sans-serif, system-ui, sans-serif">3.0%</text>
<circle cx="64" cy="162" r="6" fill="#f78166"/>
<text x="80" y="168" fill="#c9d1d9" font-size="18" font-family="ui-sans-serif, system-ui, sans-serif">Java</text>
<rect x="296" y="152" width="520" height="14" rx="7" fill="#21262d"/>
<rect x="296" y="152" width="3.87" height="14" rx="7" fill="#f78166"/>
<text x="856" y="168" text-anchor="end" fill="#c9d1d9" font-size="17" font-family="ui-sans-serif, system-ui, sans-serif">0.7%</text>
<circle cx="64" cy="196" r="6" fill="#d2a8ff"/>
<text x="80" y="202" fill="#c9d1d9" font-size="18" font-family="ui-sans-serif, system-ui, sans-serif">Vue</text>
<rect x="296" y="186" width="520" height="14" rx="7" fill="#21262d"/>
<rect x="296" y="186" width="3.69" height="14" rx="7" fill="#d2a8ff"/>
<text x="856" y="202" text-anchor="end" fill="#c9d1d9" font-size="17" font-family="ui-sans-serif, system-ui, sans-serif">0.7%</text>
<circle cx="64" cy="230" r="6" fill="#ffa657"/>
<text x="80" y="236" fill="#c9d1d9" font-size="18" font-family="ui-sans-serif, system-ui, sans-serif">TypeScript</text>
<rect x="296" y="220" width="520" height="14" rx="7" fill="#21262d"/>
<rect x="296" y="220" width="3.50" height="14" rx="7" fill="#ffa657"/>
<text x="856" y="236" text-anchor="end" fill="#c9d1d9" font-size="17" font-family="ui-sans-serif, system-ui, sans-serif">0.6%</text>
<circle cx="64" cy="264" r="6" fill="#79c0ff"/>
<text x="80" y="270" fill="#c9d1d9" font-size="18" font-family="ui-sans-serif, system-ui, sans-serif">HTML</text>
<rect x="296" y="254" width="520" height="14" rx="7" fill="#21262d"/>
<rect x="296" y="254" width="0.15" height="14" rx="7" fill="#79c0ff"/>
<text x="856" y="270" text-anchor="end" fill="#c9d1d9" font-size="17" font-family="ui-sans-serif, system-ui, sans-serif">0.0%</text>
</svg>