<svg xmlns="http://www.w3.org/2000/svg" width="1200" height="420" viewBox="0 0 1200 420" role="img">
<rect width="1200" height="420" rx="24" fill="#0d1117"/>
<text x="70" y="58" fill="#e6edf3" font-size="34" font-family="ui-sans-serif, system-ui, sans-serif" font-weight="700">Languages weighted by commit activity</text>
<text x="70" y="90" fill="#8b949e" font-size="18" font-family="ui-sans-serif, system-ui, sans-serif">@yashaswidhasarali | GitHub API-derived approximation from repo languages and commit counts</text>
<text x="70" y="88" fill="#c9d1d9" font-size="20" font-family="ui-sans-serif, system-ui, sans-serif">Python</text>
<rect x="310" y="70" width="620" height="18" rx="9" fill="#21262d"/>
<rect x="310" y="70" width="620.00" height="18" rx="9" fill="#58a6ff"/>
<text x="955" y="88" text-anchor="end" fill="#8b949e" font-size="18" font-family="ui-sans-serif, system-ui, sans-serif">23.6</text>
<text x="70" y="136" fill="#c9d1d9" font-size="20" font-family="ui-sans-serif, system-ui, sans-serif">Jupyter Notebook</text>
<rect x="310" y="118" width="620" height="18" rx="9" fill="#21262d"/>
<rect x="310" y="118" width="52.44" height="18" rx="9" fill="#3fb950"/>
<text x="955" y="136" text-anchor="end" fill="#8b949e" font-size="18" font-family="ui-sans-serif, system-ui, sans-serif">2.0</text>
<text x="70" y="184" fill="#c9d1d9" font-size="20" font-family="ui-sans-serif, system-ui, sans-serif">Java</text>
<rect x="310" y="166" width="620" height="18" rx="9" fill="#21262d"/>
<rect x="310" y="166" width="12.24" height="18" rx="9" fill="#f78166"/>
<text x="955" y="184" text-anchor="end" fill="#8b949e" font-size="18" font-family="ui-sans-serif, system-ui, sans-serif">0.5</text>
<text x="70" y="232" fill="#c9d1d9" font-size="20" font-family="ui-sans-serif, system-ui, sans-serif">Vue</text>
<rect x="310" y="214" width="620" height="18" rx="9" fill="#21262d"/>
<rect x="310" y="214" width="11.67" height="18" rx="9" fill="#d2a8ff"/>
<text x="955" y="232" text-anchor="end" fill="#8b949e" font-size="18" font-family="ui-sans-serif, system-ui, sans-serif">0.4</text>
<text x="70" y="280" fill="#c9d1d9" font-size="20" font-family="ui-sans-serif, system-ui, sans-serif">TypeScript</text>
<rect x="310" y="262" width="620" height="18" rx="9" fill="#21262d"/>
<rect x="310" y="262" width="11.06" height="18" rx="9" fill="#ffa657"/>
<text x="955" y="280" text-anchor="end" fill="#8b949e" font-size="18" font-family="ui-sans-serif, system-ui, sans-serif">0.4</text>
<text x="70" y="328" fill="#c9d1d9" font-size="20" font-family="ui-sans-serif, system-ui, sans-serif">HTML</text>
<rect x="310" y="310" width="620" height="18" rx="9" fill="#21262d"/>
<rect x="310" y="310" width="0.49" height="18" rx="9" fill="#79c0ff"/>
<text x="955" y="328" text-anchor="end" fill="#8b949e" font-size="18" font-family="ui-sans-serif, system-ui, sans-serif">0.0</text>
</svg>